<?xml version="1.0" standalone="no"?>
<!DOCTYPE svg PUBLIC "-//W3C//DTD SVG 1.1//EN" "http://www.w3.org/Graphics/SVG/1.1/DTD/svg11.dtd" >
<!--
2013-9-30: Created.
-->
<svg>
<metadata>
Created by iconfont
</metadata>
<defs>

<font id="iconfont" horiz-adv-x="1024" >
  <font-face
    font-family="iconfont"
    font-weight="500"
    font-stretch="normal"
    units-per-em="1024"
    ascent="896"
    descent="-128"
  />
    <missing-glyph />
    
    <glyph glyph-name="shoujidadianhua" unicode="&#59050;" d="M731.428571 896 292.571429 896c-40.427886 0-73.142857-32.749714-73.142857-73.142857l0-877.714286c0-40.393143 32.714971-73.142857 73.142857-73.142857l438.857143 0c40.356571 0 73.142857 32.749714 73.142857 73.142857L804.571429 822.857143C804.571429 863.250286 771.785143 896 731.428571 896zM457.142857 841.142857l109.714286 0c10.106514 0 18.285714-8.1792 18.285714-18.285714s-8.1792-18.285714-18.285714-18.285714l-109.714286 0c-10.106514 0-18.285714 8.1792-18.285714 18.285714S447.036343 841.142857 457.142857 841.142857zM512-91.428571c-30.357943 0-54.857143 24.4992-54.857143 54.857143s24.4992 54.857143 54.857143 54.857143 54.857143-24.4992 54.857143-54.857143S542.357943-91.428571 512-91.428571zM749.714286 54.857143 274.285714 54.857143 274.285714 749.714286l475.428571 0L749.714286 54.857143zM987.428571 640c-20.214857 0-36.571429-16.356571-36.571429-36.571429l0-365.714286c0-20.214857 16.356571-36.571429 36.571429-36.571429s36.571429 16.356571 36.571429 36.571429L1024 603.428571C1024 623.643429 1007.643429 640 987.428571 640zM877.714286 566.857143c-20.214857 0-36.571429-16.356571-36.571429-36.571429l0-219.428571c0-20.214857 16.356571-36.571429 36.571429-36.571429s36.571429 16.356571 36.571429 36.571429L914.285714 530.285714C914.285714 550.500571 897.929143 566.857143 877.714286 566.857143zM36.571429 640c-20.214857 0-36.571429-16.356571-36.571429-36.571429l0-365.714286c0-20.214857 16.356571-36.571429 36.571429-36.571429s36.571429 16.356571 36.571429 36.571429L73.142857 603.428571C73.142857 623.643429 56.786286 640 36.571429 640zM146.285714 566.857143c-20.214857 0-36.571429-16.356571-36.571429-36.571429l0-219.428571c0-20.214857 16.356571-36.571429 36.571429-36.571429s36.571429 16.356571 36.571429 36.571429L182.857143 530.285714C182.857143 550.500571 166.500571 566.857143 146.285714 566.857143z"  horiz-adv-x="1024" />

    
    <glyph glyph-name="shexiangtou" unicode="&#58969;" d="M762.412288 13.840778 570.227558 13.840778 570.227558 65.121628C763.093146 100.149842 908.939213 264.557107 908.939213 462.302889 908.939213 628.204247 806.23657 770.446607 659.259494 832.693325 659.234509 832.659067 659.207219 832.62591 659.18336 832.591652 608.383283 854.199588 552.359117 866.347899 493.350042 866.347899 434.340966 866.347899 378.319104 854.199588 327.519027 832.592758 327.494042 832.62591 327.467878 832.660168 327.442893 832.693325 180.464691 770.446607 77.760922 628.204242 77.760922 462.302889 77.760922 264.557107 223.606989 100.150943 416.471398 65.121628L416.471398 13.840778 224.28672 13.840778C187.433626 13.840778 185.830912-23.512556 185.830912-23.512556L185.830912-98.260106 416.471398-98.260106 570.227558-98.260106 800.869222-98.260106 800.869222-23.512556C800.869222-2.935675 783.615693 13.840778 762.412288 13.840778L762.412288 13.840778ZM632.240845 802.789437C595.843584 769.721667 547.134976 749.363599 493.350042 749.363599 439.563981 749.363599 390.85655 769.721667 354.460416 802.790543 397.485619 819.547105 444.27776 828.998989 493.350042 828.998989 542.422374 828.998989 589.214515 819.547105 632.240845 802.789437L632.240845 802.789437ZM289.131469 462.303995C289.131469 571.976986 380.469658 660.815611 493.348915 660.815611 606.153165 660.815611 697.567539 571.976986 697.567539 462.303995 697.567539 352.600064 606.153165 263.760333 493.348915 263.760333 380.470784 263.760333 289.131469 352.598958 289.131469 462.303995L289.131469 462.303995ZM601.459866 462.303995C601.459866 520.383396 553.08887 567.376476 493.350042 567.376476 472.778598 567.376476 453.773517 561.506207 437.41225 551.833308 442.517043 553.390387 447.812813 554.404864 453.401805 554.404864 483.697459 554.404864 508.216576 530.565745 508.216576 501.109422 508.216576 471.687363 483.698586 447.850455 453.401805 447.850455 423.10272 447.850455 398.620006 471.687363 398.620006 501.109422 398.620006 506.57854 399.699866 511.726075 401.268429 516.690166 391.278285 500.78121 385.242522 482.304015 385.242522 462.303995 385.242522 404.193654 433.573734 357.201679 493.348915 357.201679 553.08887 357.200573 601.459866 404.193654 601.459866 462.303995L601.459866 462.303995Z"  horiz-adv-x="1024" />

    
    <glyph glyph-name="kaoqin" unicode="&#58909;" d="M512 896C229.240053 896 0.019597 666.778482 0.019597 384.019597 0.019597 101.260715 229.241115-127.960803 512-127.960803 794.686682-127.960803 1023.980403 101.260715 1023.980403 384.019597 1023.980403 666.779544 794.683501 896 512 896L512 896 512 896 512 896ZM848.372702 507.249403C857.076157 483.110763 863.151699 458.061111 866.437923 432.572941L868.375687 418.236708 784.627325 415.1639 782.87113 426.82868C780.274004 444.344961 775.958903 461.606414 769.925835 478.24566L765.499253 490.533708 843.830377 519.789094 848.364203 507.246218 848.372702 507.249403 848.372702 507.249403 848.372702 507.249403ZM563.164276 378.229679C563.164276 354.567781 543.968249 335.370692 520.343513 335.370692 496.647638 335.370692 477.446303 354.53168 477.446303 378.229679 477.446303 387.336616 480.299321 395.673759 485.087975 402.622086 453.418088 445.299507 426.391391 491.269526 404.306245 540.561873 411.475424 544.512778 418.642478 548.46156 425.809532 552.412465 457.479419 509.809368 485.163362 465.559443 507.908939 419.26027 511.785519 420.432482 515.992315 421.088665 520.342452 421.088665 527.033826 421.088665 533.361008 419.515099 539.028821 416.77463 560.932401 443.358562 585.437358 467.130886 613.010875 487.718914 619.812675 481.318469 626.50405 474.881923 633.305849 468.482539 612.535195 436.958117 588.579182 410.080069 562.324403 386.820588 562.872284 384.001547 563.168523 381.189938 563.168523 378.226493L563.164276 378.229679 563.164276 378.229679 563.164276 378.229679ZM536.612196 213.627387 536.612196 142.608778 512.146527 142.608778 512.146527 213.627387 536.612196 213.627387 536.612196 213.627387 536.612196 213.627387 536.612196 213.627387ZM629.901764 537.054794 680.15078 587.30381 697.449398 569.969094 647.20038 519.720078 629.901764 537.054794 629.901764 537.054794 629.901764 537.054794 629.901764 537.054794ZM658.683594 281.063531 708.932607 230.779476 691.597892 213.48086 641.387102 263.729877 658.685717 281.064592 658.683594 281.063531 658.683594 281.063531 658.683594 281.063531ZM697.302869 390.517727 697.302869 414.945172 768.358643 414.945172 768.358643 390.517727 697.302869 390.517727 697.302869 390.517727 697.302869 390.517727 697.302869 390.517727ZM795.710247 603.319788C810.046477 584.706682 822.477866 564.664412 832.900353 543.564603L839.371943 530.505699 760.856062 501.14201 755.481305 511.561315C748.131622 525.787122 739.463199 539.31746 729.772284 552.045087L721.797206 562.430414 787.659785 613.958882 795.706001 603.317664 795.710247 603.319788 795.710247 603.319788 795.710247 603.319788ZM716.609323 678.94761C733.83149 666.914391 749.963201 653.349015 764.843065 638.575326 766.561039 636.784093 768.316169 635.026837 770.000161 633.235605L780.0935 622.632611 714.12262 571.031942 705.712216 579.407308C693.533526 591.585992 680.184757 602.628565 665.958951 612.319485L654.183745 620.365698 706.407683 686.047772 716.611446 678.951857 716.609323 678.94761 716.609323 678.94761 716.609323 678.94761ZM852.359705 275.980762C834.955975 222.004877 804.85647 172.998153 764.812278 132.919979 697.487619 65.666465 607.12221 28.182236 511.968147 28.182236 416.814083 28.182236 326.41151 65.664342 259.159056 132.919979 191.906601 200.175622 154.421313 290.610047 154.421313 385.694033 154.421313 480.848097 191.903415 571.250669 259.159056 638.538164 313.464093 692.807101 383.424103 728.170941 459.124126 739.325001L459.305691 814.330617 660.844328 697.486391 458.868235 581.337635 458.941499 654.476631C405.697185 644.01804 356.803007 617.944826 318.256995 579.364837 266.692426 527.874593 238.024208 458.610054 238.024208 385.651562 238.024208 312.731294 266.73065 243.501794 318.256995 191.976509 369.785463 140.37584 439.011778 111.743725 511.932046 111.743725 584.852314 111.743725 654.114729 140.379028 705.645324 191.976509 736.07292 222.329784 759.000058 259.518834 772.311671 300.369983L776.333714 312.583706 856.457138 288.812444 852.360769 275.975453 852.359705 275.980762 852.359705 275.980762 852.359705 275.980762ZM335.292288 398.78373 335.292288 374.356284 264.236515 374.356284 264.236515 398.78373 335.292288 398.78373 335.292288 398.78373 335.292288 398.78373 335.292288 398.78373ZM323.701833 558.520919 340.963286 575.855635 391.212302 525.57158 373.950849 508.272964 323.701833 558.521981 323.701833 558.520919 323.701833 558.520919 323.701833 558.520919ZM385.3608 269.58244 402.695516 252.283825 352.4465 202.073035 335.111784 219.371648 385.3608 269.58244 385.3608 269.58244 385.3608 269.58244 385.3608 269.58244ZM862.378717 314.16152 859.492786 300.008976 779.222833 323.815277 781.417543 335.517219C784.490354 352.084264 786.025694 368.871099 786.025694 385.654747 786.025694 387.336616 785.990654 388.983446 785.952433 390.628152L785.733708 403.573446 869.185824 406.60803 869.478882 393.188118C869.552143 390.738578 869.552143 388.176489 869.552143 385.654747 869.517103 361.70192 867.139766 337.67583 862.382963 314.160458L862.378717 314.16152 862.378717 314.16152 862.378717 314.16152Z"  horiz-adv-x="1024" />

    
    <glyph glyph-name="xinzeng" unicode="&#58992;" d="M512-128C229.248-128 0 101.248 0 384 0 666.752 229.248 896 512 896 794.752 896 1024 666.752 1024 384 1024 101.248 794.752-128 512-128ZM768 448 576 448 576 640C576 675.328 547.328 704 512 704 476.672 704 448 675.328 448 640L448 448 256 448C220.672 448 192 419.328 192 384 192 348.672 220.672 320 256 320L448 320 448 128C448 92.672 476.672 64 512 64 547.328 64 576 92.672 576 128L576 320 768 320C803.328 320 832 348.672 832 384 832 419.328 803.328 448 768 448Z"  horiz-adv-x="1024" />

    
    <glyph glyph-name="shezhi1" unicode="&#58896;" d="M1003.654545 389.068182 956.827273 594.454545l-124.159091 13.831818-31.590909 39.668182 14.25 123.981818-189.836364 91.409091-88.145455-88.422727-50.686364 0L398.518182 863.345455 208.681818 771.936364l14.25-124.054545-31.559091-39.595455L67.213636 594.454545l-46.863636-205.386364 105.8-66.240909 11.304545-49.390909-66.627273-105.590909 131.422727-164.736364 117.768182 41.422727 45.668182-21.972727 41-117.909091 210.686364 0 41.036364 117.909091 45.631818 21.972727 117.768182-41.422727 131.422727 164.736364-66.627273 105.590909 11.268182 49.390909L1003.654545 389.068182zM860.754545 172.936364l-64.518182-80.913636-96.745455 34.05-102.113636-49.213636-33.7-96.777273-103.377273 0-33.7 96.777273-102.113636 49.213636-96.745455-34.05-64.518182 80.913636 54.727273 86.704545-25.240909 110.468182-86.877273 54.409091 22.990909 100.85 101.972727 11.336364 70.627273 88.563636-11.690909 101.831818 93.2 44.904545 72.418182-72.590909 113.345455 0 72.418182 72.590909 93.2-44.895455-11.690909-101.831818 70.663636-88.563636 101.972727-11.336364 22.990909-100.813636-86.913636-54.445455-25.204545-110.468182L860.754545 172.936364zM511.936364 572.581818c-104.186364 0-188.640909-84.459091-188.640909-188.609091 0-104.254545 84.422727-188.677273 188.640909-188.677273s188.640909 84.422727 188.640909 188.677273C700.577273 488.127273 616.154545 572.581818 511.936364 572.581818zM511.936364 265.540909c-65.15 0-118.154545 53.040909-118.154545 118.227273 0 65.113636 53.004545 118.154545 118.154545 118.154545 65.186364 0 118.190909-53.040909 118.190909-118.154545C630.127273 318.581818 577.122727 265.540909 511.936364 265.540909z"  horiz-adv-x="1024" />

    
    <glyph glyph-name="extong-home" unicode="&#58891;" d="M828.444 330.104l-302.404 324.151c-0.243 0.243-5.908 6.681-13.904 6.681-9.406 0-13.857-6.437-14.096-6.681l-302.409-324.151h0.551l-24.466-26.31v-357.798c0 0 27.882-0.649 62.305-0.649h156.477c-0.148 1.839-0.236 3.7-0.236 5.582v238.718c0 34.436 25.504 62.358 56.957 62.358h131.634c31.45 0 56.961-27.927 56.961-62.358v-238.716c0-1.885-0.092-3.748-0.243-5.582h154.374c34.428 0 62.337 0.644 62.337 0.644v357.803l-24.466 26.31h0.627v-0.001zM582.334 790.924c-39.012 39.085-102.31 39.085-141.323 0l-397.37-397.959c14.708-28.668 40.962-50.415 72.608-59.095l375.66 374.585c2.35 2.332 4.643 4.383 6.914 6.102 4.515 4.046 8.874 5.738 13.214 5.573 4.336 0.166 8.694-1.526 13.215-5.573 2.27-1.719 4.564-3.771 6.914-6.102l375.716-374.64c31.501 8.565 57.665 30.074 72.475 58.469l-398.023 398.64zM582.334 790.924z"  horiz-adv-x="1024" />

    
    <glyph glyph-name="yijianfankui" unicode="&#59004;" d="M128-51.2c0 0 51.2 147.2 134.4 262.4C262.4 345.6 492.8 864 896 832c-25.6-64-44.8-134.4-64-192 0 0-64-25.6-64-25.6s64 12.8 57.6 6.4c-32-115.2-57.6-217.6-108.8-300.8 0-6.4-121.6-12.8-121.6-12.8s115.2-6.4 108.8-6.4c-70.4-96-179.2-166.4-390.4-204.8 0 0 256 403.2 249.6 403.2S128-51.2 128-51.2zM345.6-64c-12.8 0-19.2 0-32 6.4-32 6.4-64 19.2-89.6 44.8-6.4 6.4-6.4 12.8 0 12.8 6.4 6.4 12.8 6.4 12.8 0 25.6-19.2 51.2-38.4 83.2-44.8 57.6-12.8 102.4 12.8 153.6 38.4 32 19.2 70.4 38.4 108.8 44.8 83.2 19.2 172.8 6.4 275.2-44.8 6.4 0 6.4-6.4 6.4-12.8 0-6.4-6.4-6.4-12.8-6.4-96 44.8-179.2 64-256 44.8C544 12.8 512 0 480-19.2 435.2-44.8 390.4-64 345.6-64z"  horiz-adv-x="1024" />

    
    <glyph glyph-name="rmb" unicode="&#58880;" d="M758.91 722.564l-182.978-311.294h144.179v-68.778h-167.988v-94.785h167.988v-69.651h-167.988v-138.008h-86.417v138.008l-174.158-0v69.651h174.158v94.785h-174.158v68.778h148.603l-181.232 311.294h97.434c84.671-154.623 136.082-252.659 154.322-294.107h1.776c6.17 17.037 23.087 51.441 50.718 103.183l103.604 190.924 92.136 0z"  horiz-adv-x="1024" />

    
    <glyph glyph-name="tuijian" unicode="&#59024;" d="M512.288 288C388.576 288 288.288 388.288 288.288 512 288.288 635.712 388.576 736 512.288 736 636.000003 736 736.288003 635.712 736.288003 512 736.288003 388.288 636.000003 288 512.288 288L512.288 288ZM864.96 338.048C890.656003 389.6 905.504003 447.328 905.504003 508.608 905.504003 722.56 729.440003 896 512.288 896 295.136 896 119.072 722.56 119.072 508.608 119.072 447.328 133.92 389.6 159.616 338.048L0 65.728C0 65.728 101.216 45.407997 203.904 24.288003 272.384-51.935997 340.544-128 340.544-128L487.296 122.432C495.616 121.92 503.84 121.184003 512.288 121.184003 520.736 121.184003 528.96 121.92 537.28 122.432L684.032-128C684.032-128 752.192-51.935997 820.672 24.288003 923.360003 45.407997 1024.576 65.728 1024.576 65.728L864.96 338.048 864.96 338.048ZM512.288 672C423.904 672 352.288 600.384 352.288 512 352.288 423.616 423.904 352 512.288 352 600.672 352 672.288003 423.616 672.288003 512 672.288003 600.384 600.672 672 512.288 672L512.288 672Z"  horiz-adv-x="1025" />

    
    <glyph glyph-name="xingbie" unicode="&#58914;" d="M465.45408 247.621818V151.272727H278.434444a46.545455 46.545455 0 0 1 0-93.090909H465.45408v-140.101818c0-25.413818 21.597091-46.08 46.545455-46.08 25.693091 0 46.545455 21.504 46.545454 46.08V58.181818h187.019636a46.545455 46.545455 0 0 1 0 93.090909H558.544989V247.621818a325.818182 325.818182 0 1 1-93.090909 0zM511.999535 802.909091a232.727273 232.727273 0 1 0 0-465.454546 232.727273 232.727273 0 0 0 0 465.454546z"  horiz-adv-x="1024" />

    
    <glyph glyph-name="jiaofei" unicode="&#58916;" d="M253.993993 775.176255c-5.253206 4.627825-9.630878 10.006107-13.258092 16.134848-3.627214 6.253817-6.253817 12.757787-7.879809 19.636985-1.625992 6.879199-1.625992 13.758397 0 20.637597s5.12813 13.258092 10.25626 19.13668c5.878588 5.878588 11.131794 8.505191 15.634542 7.879809 4.627825-0.625382 9.630878-2.251374 15.259314-4.877977 5.503359-2.626603 12.257481-5.503359 20.137291-8.88042 7.879809-3.251985 17.635764-4.877977 29.39294-4.877978 10.506413 0 18.761451 3.001832 25.015268 8.880421 6.253817 5.878588 12.132405 12.257481 17.635764 19.13668s11.6321 13.258092 18.136069 19.13668c6.50397 5.878588 15.38439 8.88042 26.516184 8.88042 11.131794 0 19.762062-3.001832 26.015879-8.88042 6.253817-5.878588 11.882252-12.257481 17.135459-19.13668 5.253206-6.879199 11.256871-13.133016 18.136069-18.636375s16.134848-8.380115 27.892024-8.380115c9.755955 0 17.76084 2.751679 24.014658 8.380115 6.253817 5.503359 12.257481 11.757176 18.136069 18.636375 5.878588 6.879199 12.257481 13.258092 19.13668 19.13668 6.879199 5.878588 15.884695 8.88042 27.01649 8.88042 11.131794 0 19.887138-3.001832 26.516184-8.88042 6.50397-5.878588 12.382558-12.257481 17.635764-19.13668 5.253206-6.879199 11.006718-13.258092 17.135459-19.13668 6.253817-5.878588 14.884085-8.88042 26.015878-8.880421 11.757176 0 21.388054 1.625992 28.892635 4.877978s14.00855 6.253817 19.636986 8.88042c5.503359 2.626603 10.631489 4.252596 15.259313 4.877977 4.627825 0.625382 9.755955-2.001221 15.634543-7.879809 5.253206-5.878588 8.505191-12.257481 9.755954-19.13668s1.250763-13.758397 0-20.637597-3.877367-13.383168-7.879809-19.636985c-3.877367-6.253817-8.129962-11.6321-12.757787-16.134848-5.253206-4.627825-13.258092-12.382558-24.014657-23.514352s-21.763283-22.513741-32.895078-34.270917c-13.133016-13.758397-26.766337-28.392329-41.150116-44.151949H352.053844c-15.009161 15.634543-28.767558 30.393551-41.150116 44.151949-11.131794 11.757176-22.013436 23.264199-32.895077 34.270917-10.756565 11.006718-18.761451 18.886527-24.014658 23.514352z m422.632955-146.089166c49.655307-28.142177 94.182484-61.787712 133.331379-100.936607 16.385001-17.010382 32.644925-35.771833 49.029926-56.409429 16.385001-20.637596 30.76878-43.526567 43.151337-68.666911 12.382558-25.140344 22.513741-52.28191 30.393551-81.424698 7.879809-29.142787 11.757176-60.286796 11.757176-93.682179 0-55.533895-8.505191-105.189202-25.515574-149.090998-17.010382-43.776719-43.651643-81.049469-79.923781-111.818248-36.272139-30.76878-82.300232-54.283132-138.209356-70.543056-55.909124-16.385001-122.69989-24.514963-200.497374-24.514963-78.422866 0-145.713937 8.129962-201.99829 24.514963-56.159277 16.385001-102.437523 39.899353-138.709662 70.543056C123.164141-2.048125 96.522881 35.224624 79.512498 79.001344 62.502116 122.778063 53.996925 172.43337 53.996925 227.967265c0 33.395383 3.75229 64.539392 11.256871 93.682179 7.50458 29.142787 17.635764 56.159277 30.39355 81.424698 12.757787 25.140344 27.01649 48.029315 42.651032 68.666911C154.057997 492.253573 170.317922 511.015024 187.328304 528.025406c39.273971 39.273971 84.051301 72.919507 134.33199 100.936607h354.966654v0.125076z m45.152559-311.815317h-123.575424l78.422865 104.93905-36.272139 27.391719-79.423476-105.939661 35.271528-26.516184H445.235718l37.27275 27.516795-79.423477 106.815195-37.272749-27.516795 79.423476-106.815195H321.660294v-44.151948h178.483938v-89.179431H321.660294v-45.152559h178.483938v-89.179431h43.151337v89.179431h178.483938v45.152559H543.295569v89.179431h178.483938v44.277024z"  horiz-adv-x="1024" />

    
    <glyph glyph-name="shizhong" unicode="&#59109;" d="M1018.576593 582.162963a519.964444 519.964444 0 0 1-273.104593 272.19437A193.991111 193.991111 0 0 0 865.697185 896c107.482074 0 194.635852-86.85037 194.635852-194.029037 0-45.24563-15.701333-86.812444-41.756444-119.808z m-7.964445-214.584889c0-127.203556-50.062222-242.536296-131.299555-328.286815l67.20474-66.977185c8.912593-8.874667 14.411852-21.124741 14.411852-34.62637 0-27.079111-21.997037-49.000296-49.152-49.000297-13.577481 0-25.865481 5.499259-34.740148 14.336l-72.210963 71.945482a479.004444 479.004444 0 0 0-274.659555-86.281482c-102.020741 0-196.456296 31.93363-274.204445 85.978074l-71.68-71.452444a49.607111 49.607111 0 0 0-35.157333-14.52563c-27.45837 0-49.682963 22.186667-49.682963 49.53126 0 13.691259 5.537185 26.093037 14.525629 35.043555l66.635852 66.446222c-80.933926 85.712593-130.88237 200.855704-130.88237 327.86963 0 264.495407 215.077926 478.890667 480.44563 478.890667 265.367704 0 480.44563-214.395259 480.445629-478.890667zM530.204444 747.406222c-210.488889 0-381.041778-170.059852-381.041777-379.828148 0-209.73037 170.590815-379.828148 381.041777-379.828148s381.041778 170.059852 381.041778 379.828148c0 209.73037-170.590815 379.828148-381.041778 379.828148z m198.807704-429.359407H530.204444c-27.45837 0-49.682963 22.186667-49.682963 49.531259V631.770074c0 27.382519 22.224593 49.569185 49.682963 49.569185 27.420444 0 49.682963-22.186667 49.682963-49.569185v-214.660741h149.124741c27.45837 0 49.682963-22.186667 49.682963-49.531259 0-27.344593-22.224593-49.531259-49.682963-49.531259zM42.666667 575.450074A196.683852 196.683852 0 0 0 0 697.837037C0 807.291259 89.012148 896 198.807704 896 245.191111 896 287.781926 880.033185 321.611852 853.485037a531.114667 531.114667 0 0 1-278.945185-278.034963z"  horiz-adv-x="1061" />

    
    <glyph glyph-name="xuesheng--" unicode="&#58882;" d="M812.8 505.6c0-121.6-83.2-256-185.6-256-102.4 0-185.6 134.4-185.6 256s83.2 224 185.6 224c102.4 0 185.6-102.4 185.6-224zM947.2 83.2c-38.4 64-102.4 128-249.6 140.8l-64-64-6.4-6.4c-6.4 0-6.4 0-6.4 6.4l-64 64c-140.8-19.2-217.6-89.6-249.6-134.4-12.8-19.2-6.4-96-6.4-96H960s0 76.8-12.8 89.6zM480 691.2c-25.6 51.2-70.4 83.2-128 83.2-83.2 0-147.2-76.8-147.2-179.2s64-204.8 147.2-204.8c25.6 0 44.8 6.4 64 25.6-6.4 32-12.8 64-12.8 89.6 0 76.8 32 140.8 76.8 185.6zM531.2 256c-44.8 19.2-96 70.4-121.6 115.2h-19.2l-51.2-51.2h-6.4-6.4l-51.2 51.2c-108.8-12.8-172.8-64-198.4-108.8-12.8-12.8-6.4-76.8-6.4-76.8h288c38.4 19.2 160 51.2 172.8 70.4z"  horiz-adv-x="1024" />

    
    <glyph glyph-name="bofang" unicode="&#59098;" d="M511.3 831C264.5 831 64.5 631 64.5 384.2s200-446.8 446.8-446.8 446.8 200 446.8 446.8S758.1 831 511.3 831z m238.5-454.4c-2.2-3.8-4.8-6.7-8.5-8.9L578.4 271l-162.9-96.9c-11-6.7-25.5-2.7-32.1 8.9-2.2 3.8-3 7.9-3 12h-0.3V582.5c0 13.4 10.7 24.1 23.7 24.1 4.7 0 9.2-1.4 13-4.1l161.6-95.9 162.9-96.9c11.3-6.7 15-21.8 8.5-33.1z"  horiz-adv-x="1024" />

    
    <glyph glyph-name="enter" unicode="&#59128;" d="M693.792 397.76l-320 297.664a32 32 0 0 1-43.584-46.848l295.36-274.752-295.84-286.848a31.968 31.968 0 1 1 44.544-45.92l320 310.272a31.968 31.968 0 0 1-0.48 46.4"  horiz-adv-x="1024" />

    
    <glyph glyph-name="return" unicode="&#59168;" d="M694.272 86.976l-295.808 286.848 295.36 274.752a32 32 0 0 1-43.616 46.848l-320-297.696a32 32 0 0 1-0.512-46.4l320-310.304a32.032 32.032 0 0 1 44.576 45.952"  horiz-adv-x="1024" />

    
    <glyph glyph-name="jiaose" unicode="&#59053;" d="M951.854545 861.090909c-2.327273 0-39.563636-20.945455-111.70909-41.890909-67.490909-20.945455-179.2-44.218182-328.145455-44.218182-148.945455 0-260.654545 23.272727-328.145455 41.890909-72.145455 20.945455-109.381818 41.890909-111.70909 44.218182L13.963636 896v-67.490909c2.327273-148.945455 23.272727-286.254545 60.509091-409.6C107.054545 314.181818 153.6 221.090909 209.454545 137.309091c104.727273-148.945455 221.090909-223.418182 281.6-253.672727l20.945455-11.636364 18.618182 9.309091c60.509091 30.254545 179.2 107.054545 281.6 253.672727 58.181818 81.454545 104.727273 176.872727 137.309091 281.6 39.563636 123.345455 60.509091 260.654545 60.509091 409.6V896l-58.181819-34.909091z m-819.2-325.818182c155.927273 118.690909 279.272727 0 279.272728 0-155.927273-144.290909-279.272727 0-279.272728 0zM512-83.781818v139.636363c155.927273 100.072727 181.527273 207.127273 181.527273 207.127273H512V737.745455C814.545455 735.418182 970.472727 826.181818 970.472727 826.181818 963.490909 200.145455 623.709091-25.6 512-83.781818zM512-83.781818z"  horiz-adv-x="1024" />

    
    <glyph glyph-name="packup" unicode="&#59209;" d="M793.024 185.728a32 32 0 1 1 45.952 44.544l-310.304 320a32 32 0 0 1-46.4-0.48l-297.696-320a32 32 0 0 1 46.848-43.584l274.752 295.328 286.848-295.808z"  horiz-adv-x="1024" />

    
    <glyph glyph-name="unfold" unicode="&#59210;" d="M231.424 549.792a32 32 0 0 1-46.848-43.584l297.696-320a32 32 0 0 1 46.4-0.48l310.304 320a32 32 0 1 1-45.952 44.544l-286.848-295.808-274.752 295.36z"  horiz-adv-x="1024" />

    
    <glyph glyph-name="dianpu_call" unicode="&#59069;" d="M512.442 895.674c-282.674 0-511.837-229.163-511.837-511.837s229.117-511.837 511.837-511.837c282.674 0 511.837 229.163 511.837 511.837s-229.163 511.837-511.837 511.837zM313.291 148.532c-31.315 31.222-85.942 69.331-14.797 126.563 71.099 57.14 91.014 29.035 123.306-3.257 22.567-22.474 79.567 24.568 128.843 73.798 49.229 49.229 96.318 106.276 73.705 128.843-32.199 32.246-60.35 52.114-3.164 123.306 57.14 71.099 95.248 16.472 126.563-14.797 36.015-36.061 1.861-170.535-131.030-303.473-132.892-132.892-267.365-167.092-303.473-130.984z"  horiz-adv-x="1024" />

    
    <glyph glyph-name="nan" unicode="&#59195;" d="M606.075 799.529v-77.1h161.701L609.239 551.762c-121.86 84.893-307.703 74.054-418.203-44.94-120.225-129.54-111.785-333.663 17.809-453.945C338.325-67.406 540.108-58.5 660.45 71.036c110.494 118.993 119.518 293.884 10.427 423.482l166.627 179.539v-183.053h77.163V799.53H606.075v-0.001m-4.921-673.538c-88.7-95.555-238.572-101.122-334.185-12.421-95.501 88.757-101.126 238.689-12.305 334.252 88.701 95.497 238.571 101.123 334.191 12.361 95.495-88.701 101.004-238.632 12.305-334.191h-0.006m0-0.001z"  horiz-adv-x="1024" />

    
    <glyph glyph-name="SYS_STA_1" unicode="&#58884;" d="M274.497 459.212l-80.757 80.649c-25.405 25.468-25.519 66.624-0.268 92.2l68.671 69.435c25.245 25.595 66.293 25.717 91.869 0.3l80.751-80.573c17.971-17.977 26.998-43.975 19.667-66.694l72.495-71.291c50.514 50.98 50.33 133.669-0.503 184.35l-126.95 126.728c-50.712 50.745-132.93 50.388-183.572-0.6l-114.373-115.82c-50.566-51.051-50.38-133.605 0.561-184.413l126.791-126.536c50.828-50.808 133.012-50.572 183.546 0.529l-71.029 71.361c-21.745-5.986-49.814 3.353-66.899 20.374v0zM919.224 282.825l-122.392 122.22c-51.707 51.663-135.531 51.414-187.008-0.586l72.751-73.707c23.064 7.803 49.476-1.549 67.817-19.826l75.505-75.371c25.882-25.717 26.061-67.995 0.363-94.005l-70.112-70.576c-25.697-26.067-67.511-26.188-93.411-0.363l-75.416 75.377c-17.506 17.486-27.093 46.142-21.108 68.358l-72.967 72.254c-51.337-52.006-51.108-136.054 0.6-187.888l122.392-122.226c51.847-51.7 135.608-51.401 186.995 0.478l116.533 117.917c51.471 52.064 51.242 136.174-0.541 187.946v0zM373.767 524.644c-17.302-17.741-17.194-46.383 0.235-64.112l209.117-212.82c17.48-17.614 45.536-17.486 62.671 0.243 17.251 17.863 17.060 46.499-0.306 64.112l-209.122 212.82c-17.372 17.55-45.364 17.423-62.596-0.243v0z"  horiz-adv-x="1024" />

    
    <glyph glyph-name="yuandian2" unicode="&#58887;" d="M165.24007498734113 384.9205889155997c0-191.2179368534541 155.0128729766465-346.2308098301005 346.2308098301005-346.2308098301005s346.2308098301005 155.0128729766465 346.2308098301005 346.2308098301005c0 191.2179368534541-155.0128729766465 346.2308098301005-346.2308098301005 346.2308098301005-191.2179368534541 0-346.2308098301005-155.0128729766465-346.2308098301005-346.2308098301005z"  horiz-adv-x="1024" />

    
    <glyph glyph-name="bodadianhua" unicode="&#59181;" d="M616.9088 874.5216a49.8944 49.8944 0 0 1-7.89504 0.93696c-23.6288 0.86528-44.30336-14.55104-49.06496-36.6848-2.62656-12.0064-0.1792-24.28928 6.92224-34.57024 7.08096-10.27072 17.92512-17.29536 30.53056-19.74784 101.46304-19.97824 188.8256-76.55424 245.9648-159.30368 57.1136-82.78528 77.02528-181.66784 56.14592-278.45632-2.62656-12.04736-0.1792-24.30464 6.92224-34.56512 7.07584-10.27072 17.92512-17.28 30.52544-19.76832 2.61632-0.49152 5.26336-0.79872 7.92064-0.9216a49.77664 49.77664 0 0 1 28.34432 7.552c10.76736 6.76864 18.12992 17.12128 20.72576 29.1328 53.92384 249.7792-115.19488 494.91968-377.04192 546.39616z m83.00544-690.8416c2.85184-1.77664 66.4832-40.74496 115.36896-88.64256 18.41152-18.11968 49.24416-48.42496 48.42496-83.59936-0.68608-24.01792-14.89408-48.11264-43.46368-73.53856-7.10144-6.656-70.7328-63.34464-172.52864-63.34464-27.88352 0-56.52992 4.224-85.1456 12.53376-30.07488 8.69376-60.65152 22.12864-90.79808 39.8592-119.04 67.05664-210.90816 153.3952-298.13248 280.04352C23.69536 424.66816 19.38944 611.08736 20.08064 646.21568c0.256 162.14528 141.824 225.92512 157.96736 232.68352C200.24832 888.71424 219.65312 893.44 237.52192 893.44c8.55552 0 16.75264-1.10592 24.3456-3.31776 15.60576-4.51584 37.2736-16.22528 51.84-46.31552C333.568 802.97984 352.3584 744.448 365.18912 683.17184c13.49632-63.59552-23.8848-81.44896-60.03712-98.70336l-1.42848-0.59904s-63.95904-25.45152-75.2128-29.8752c-11.04896-4.39808-16.80896-16.27136-13.03552-27.13088 25.78944-74.53696 65.18272-151.83872 113.86368-223.53408 47.89248-70.53824 104.85248-135.64416 164.6848-188.34944a23.7312 23.7312 0 0 1 15.58528-5.80096l1.96096 0.09728a23.296 23.296 0 0 1 16.16896 8.35072c9.72288 11.9296 24.64768 29.11232 40.38144 43.40224 29.83936 27.06944 56.832 40.20736 82.49856 40.20736 7.02464 0 14.0032-0.98304 20.72576-2.93888 6.44096-1.87904 16.85504-7.22432 28.5696-14.6176zM497.43872 497.43872c-12.62592 2.50368-23.4752 9.4976-30.55616 19.75296-7.12704 10.28096-9.5744 22.56896-6.97856 34.61632 4.84352 22.11328 25.46688 37.53472 49.06496 36.63872 2.62656-0.07168 5.2736-0.37888 7.92064-0.90112 111.90784-22.00576 184.19712-126.80704 161.14688-233.60512-2.57024-11.97056-9.90208-22.30784-20.67456-29.11744a50.20672 50.20672 0 0 0-28.3392-7.552 53.98528 53.98528 0 0 0-7.88992 0.9472c-12.65664 2.44224-23.5264 9.48736-30.60736 19.76832-7.07584 10.24-9.5232 22.48704-6.92224 34.5344 5.95968 27.63776 0.3072 55.86432-16.04096 79.49312-16.29696 23.59296-41.17504 39.74656-70.12352 45.42464z m50.10944 144.0768c-26.02496 5.15072-42.8288 29.49632-37.4784 54.30272 4.7872 22.15936 25.41056 37.59616 49.03936 36.72576 2.65728-0.10752 5.30944-0.41984 7.91552-0.93696 90.56768-17.8176 168.48384-68.28544 219.50976-142.17728 50.94912-73.84576 68.74624-162.09408 50.06336-248.48896-2.60096-12.04736-9.9584-22.42048-20.73088-29.1328a49.3568 49.3568 0 0 0-28.3136-7.56224 50.41664 50.41664 0 0 0-7.94112 0.9472c-25.96864 5.08928-42.79808 29.45024-37.4528 54.30272 13.47072 62.336 0.63488 126.06976-36.18304 179.41504-36.82304 53.3248-93.04064 89.76384-158.42816 102.6048z"  horiz-adv-x="1024" />

    
    <glyph glyph-name="fenxiang" unicode="&#58917;" d="M972.8 346.0864v-294.7584A128.0768 128.0768 0 0 0 844.8-76.8H179.2a128 128 0 0 0-128 128V716.8c0 70.7328 57.1904 128 127.872 128h202.3168a25.6 25.6 0 0 1 0 51.2H179.072A179.072 179.072 0 0 1 0 716.8v-665.6a179.2 179.2 0 0 1 179.2-179.2h665.6c98.944 0 179.2 80.2816 179.2 179.328V346.0864a25.6 25.6 0 0 1-51.2 0zM960 768c-353.4592 0-640-286.5408-640-640a25.6 25.6 0 0 1 51.2 0c0 325.1968 263.6032 588.8 588.8 588.8a25.6 25.6 0 0 1 0 51.2zM720.1024 833.8432l256-102.4a25.6 25.6 0 0 1 18.9952 47.5136l-256 102.4a25.6 25.6 0 0 1-18.9952-47.5136zM808.8064 547.5328l194.6368 189.312a25.6 25.6 0 1 1-35.6864 36.7104L773.12 584.2432a25.6 25.6 0 1 1 35.6864-36.7104z"  horiz-adv-x="1024" />

    
    <glyph glyph-name="fanhui" unicode="&#58918;" d="M710.153924 887.019603L266.007127 435.307476a81.118646 81.118646 0 0 1 0.861532-114.476097l446.192936-441.050666a26.922883 26.922883 0 0 1 37.853573 38.284339L304.722232 359.115718a27.27288 27.27288 0 0 0-0.323074 38.445877L748.545955 849.273722A26.922883 26.922883 0 1 1 710.180847 886.99268z"  horiz-adv-x="1024" />

    
    <glyph glyph-name="guanbi" unicode="&#58920;" d="M512 439.689846L94.247385 857.442462a39.542154 39.542154 0 0 1-55.689847 0 39.266462 39.266462 0 0 1 0-55.689847L456.310154 384 38.557538-33.752615a39.542154 39.542154 0 0 1 0-55.689847 39.266462 39.266462 0 0 1 55.689847 0L512 328.310154l417.752615-417.752616c15.163077-15.163077 40.290462-15.36 55.689847 0a39.266462 39.266462 0 0 1 0 55.689847L567.689846 384 985.442462 801.752615a39.542154 39.542154 0 0 1 0 55.689847 39.266462 39.266462 0 0 1-55.689847 0L512 439.689846z"  horiz-adv-x="1024" />

    
    <glyph glyph-name="jiantouyou" unicode="&#58925;" d="M312.888889-99.555556c-17.066667 0-28.444444 5.688889-39.822222 17.066667-22.755556 22.755556-17.066667 56.888889 5.688889 79.644445l364.088888 329.955555c11.377778 11.377778 17.066667 22.755556 17.066667 34.133333 0 11.377778-5.688889 22.755556-17.066667 34.133334L273.066667 708.266667c-22.755556 22.755556-28.444444 56.888889-5.688889 79.644444 22.755556 22.755556 56.888889 28.444444 79.644444 5.688889l364.088889-312.888889c34.133333-28.444444 56.888889-73.955556 56.888889-119.466667s-17.066667-85.333333-51.2-119.466666l-364.088889-329.955556c-11.377778-5.688889-28.444444-11.377778-39.822222-11.377778z"  horiz-adv-x="1024" />

    
    <glyph glyph-name="xiaoxi1" unicode="&#58928;" d="M490.752 104.768A21.333333 21.333333 0 0 0 512 128c13.866667 0 27.669333 0.618667 41.344 1.834667C748.032 147.221333 896 284.906667 896 448c0 175.850667-171.178667 320-384 320S128 623.850667 128 448c0-89.770667 44.693333-173.845333 122.410667-234.176a21.333333 21.333333 0 0 0-26.154667-33.706667C136.512 248.234667 85.333333 344.490667 85.333333 448c0 201.173333 191.765333 362.666667 426.666667 362.666667s426.666667-161.493333 426.666667-362.666667c0-186.816-166.186667-341.44-381.525334-360.661333-8.96-0.789333-17.92-1.365333-26.965333-1.685334-18.986667-73.557333-82.602667-116.778667-161.002667-127.445333-31.616-4.309333-61.952-2.197333-80.554666 5.866667-32.917333 14.250667-30.037333 46.933333 3.178666 64.256 20.352 10.602667 31.893333 25.450667 37.013334 44.224 4.48 16.490667 3.712 34.922667-0.426667 52.565333a95.061333 95.061333 0 0 1-3.114667 10.965333 21.333333 21.333333 0 0 0 39.893334 15.189334c1.28-3.456 3.072-9.088 4.778666-16.448 5.589333-23.957333 6.634667-49.152 0.021334-73.472a108.842667 108.842667 0 0 0-44.096-62.229334c10.752-0.853333 23.893333-0.512 37.546666 1.344 65.877333 8.981333 116.053333 44.714667 127.338667 104.32zM352 469.333333a21.333333 21.333333 0 0 0 0 42.666667h341.333333a21.333333 21.333333 0 0 0 0-42.666667h-341.333333z m0-128a21.333333 21.333333 0 0 0 0 42.666667h213.333333a21.333333 21.333333 0 0 0 0-42.666667h-213.333333z"  horiz-adv-x="1024" />

    
    <glyph glyph-name="faxian" unicode="&#58929;" d="M512-76.8c-253.44 0-460.8 207.36-460.8 460.8S258.56 844.8 512 844.8s460.8-207.36 460.8-460.8-207.36-460.8-460.8-460.8z m0 51.2c225.28 0 409.6 184.32 409.6 409.6S737.28 793.6 512 793.6 102.4 609.28 102.4 384s184.32-409.6 409.6-409.6z m0 204.8c-143.36 0-281.6 104.96-281.6 204.8s138.24 204.8 281.6 204.8 281.6-104.96 281.6-204.8-138.24-204.8-281.6-204.8z m0 51.2c117.76 0 230.4 87.04 230.4 153.6s-112.64 153.6-230.4 153.6-230.4-87.04-230.4-153.6 112.64-153.6 230.4-153.6z m0 51.2c-56.32 0-102.4 46.08-102.4 102.4s46.08 102.4 102.4 102.4 102.4-46.08 102.4-102.4-46.08-102.4-102.4-102.4z m0 51.2c28.16 0 51.2 23.04 51.2 51.2s-23.04 51.2-51.2 51.2-51.2-23.04-51.2-51.2 23.04-51.2 51.2-51.2z"  horiz-adv-x="1024" />

    
    <glyph glyph-name="sousuo" unicode="&#58930;" d="M474.453333 11.946667c-225.28 0-409.6 184.32-409.6 409.6s184.32 409.6 409.6 409.6 409.6-184.32 409.6-409.6-184.32-409.6-409.6-409.6z m0 68.266666c187.733333 0 341.333333 153.6 341.333334 341.333334s-153.6 341.333333-341.333334 341.333333-341.333333-153.6-341.333333-341.333333 153.6-341.333333 341.333333-341.333334z m252.586667-54.613333c-13.653333 13.653333-10.24 37.546667 3.413333 47.786667s37.546667 10.24 47.786667-3.413334l64.853333-78.506666c13.653333-13.653333 10.24-37.546667-3.413333-47.786667s-37.546667-10.24-47.786667 3.413333l-64.853333 78.506667z"  horiz-adv-x="1024" />

    
    <glyph glyph-name="sheshidu" unicode="&#58905;" d="M547.99889325 275.48814176999997V630.05517657h-68.45207287v-352.80598661c-58.83790162-13.926008-102.67220499-66.66297769-102.67220377-129.75809907 0-73.71455056 59.75459126-133.47652313 133.47504613-133.47652191 73.71602754 0 133.47652313 59.76197257 133.47652313 133.47652191 0.00147578 60.62109249-40.45982196 111.73281914-95.82729262 127.99705088z m116.36202974 85.78060925v368.03396069c0 85.05729449-68.95839308 154.00978326-154.01126025 154.00978205-85.05139018 0-154.00978326-68.95248756-154.00978205-154.00978205v-368.03396069C290.03117849 313.40898501000004 246.8242391 235.51102157000003 246.8242391 147.48961511000005c0-145.54405759 117.98284303-263.52542364 263.52690062-263.52542363 145.54553337 0 263.52837639 117.98284303 263.52837519 263.52542363 0 88.02140645-43.20103387 165.91936868-109.51859192 213.77913591zM510.35113972-54.43602811000005c-111.51730157 0-201.92121469 90.40834287-201.9212159 201.927119 0 78.20795479 44.49266589 145.97952125 109.51859314 179.52062517V729.30271171c0 51.03644399 41.36617878 92.40409854 92.40262276 92.40409854 51.03791977 0 92.40409854-41.36765455 92.40409854-92.40409854v-402.29099565c65.02592603-33.54257849 109.51711615-101.31266916 109.51711616-179.52062517 0.00147578-111.52320588-90.39653305-201.92712021-201.9212147-201.927119z m0 0M256.07675358 688.46794737c8.46720144-0.24356454 16.93292832 0 25.15213668 0 8.22511267 0 16.69083955-0.24356454 25.15213669 0 11.60992692 0.47827323 20.07270105 8.70043436 20.55687858 19.82913529 0.48417755 11.12279783-8.21920836 20.55687858-20.06974949 21.04105611a905.21710804 905.21710804 0 0 1-51.27558001 0c-11.84611138-0.24208877-20.06974828-9.43408075-19.8276595-21.04105611 0.24208877-11.3648866 8.46424989-19.35086326 20.31183705-19.82913529zM303.96751933 597.96070218h1.20158799c10.16329982 0.48417755 17.65919463 5.56508896 20.32364567 13.78725009 4.59230534 13.54516131-4.59821087 26.84675808-19.59590358 27.08884684-16.44284526 0.48565331-32.6480315 0.24356454-48.84878799 0-2.66445225 0-5.56656473-0.48417755-7.98302511-1.45253262-9.18903922-3.14272548-14.51351639-12.09115292-13.30011978-22.25149997 1.21044385-9.67026521 9.43112799-16.92997556 20.31183705-17.41415311 8.46720144-0.47827323 16.93292832 0 25.15213668 0 7.49589482 0.24208877 15.24273547 0.24208877 22.73862907 0.24208877zM305.89684941 548.07270378c-8.21920836 0.23618446-16.44284526 0-24.66795915 0-8.46129713 0-16.92702279 0.23618446-25.15213668 0-11.84611138-0.24208877-20.55392582-8.94990321-20.55392583-20.32069413-0.24504153-11.60697537 8.70633867-20.55540281 20.7960146-20.5554016 16.69083955-0.24356454 32.89307182-0.24356454 49.57800706 0 11.61287968 0.24208877 20.55687858 8.94842743 20.55687858 20.31331284 0.240613 11.37079091-8.9439989 20.32069412-20.55687858 20.56278289zM306.13893818 457.27613413a1725.48467856 1725.48467856 0 0 1-50.0621846 0c-11.84611138-0.24208877-20.31183705-9.42670066-20.31183705-20.79896735 0-11.3648866 8.46424989-19.8291365 20.55392582-20.07122405 8.46720144-0.24208877 16.92997556 0 25.15213669 0 7.9830239 0 16.44875078-0.24208877 24.42587037 0 11.85792122 0.24208877 20.79896735 8.70633867 21.04105612 20.07122405-0.24356454 11.13017791-9.18313491 20.55687858-20.79896735 20.79896735z"  horiz-adv-x="1024" />

    
    <glyph glyph-name="wo1" unicode="&#58886;" d="M102.905484-127.71208100000001C102.646168-121.71774100000005 102.515168-115.68956100000003 102.515168-109.63021000000003L102.515168-19.122276000000056C102.515168 126.58071299999995 178.7135 254.52059499999996 293.232075 327.16542100000004L293.232075 327.16542100000004C354.130201 281.30028500000003 429.890013 254.11196099999995 512 254.11196099999995 594.182905 254.11196099999995 670.004353 281.34859700000004 730.930134 327.28765799999996 845.458868 254.731045 921.484832 126.85038399999996 921.484832-19.122276000000056L921.484832-109.63021000000003C921.484832-115.68912 921.353067-121.71730600000001 921.092265-127.71208100000001L102.905484-127.71208100000001 102.905484-127.71208100000001ZM512 350.020224C662.768152 350.020224 784.989891 472.24196 784.989891 623.010111 784.989891 773.778264 662.768152 896 512 896 361.231848 896 239.010111 773.778264 239.010111 623.010111 239.010111 472.24196 361.231848 350.020224 512 350.020224Z"  horiz-adv-x="1024" />

    
    <glyph glyph-name="zhuanhuan" unicode="&#58921;" d="M937.742821 467.762623H87.183227a85.039833 85.039833 0 1 0 0 170.025911h643.926776l-105.896632 105.842877a87.781319 87.781319 0 1 0 124.173208 124.119453l248.453924-248.238906a87.781319 87.781319 0 0 0 24.35085-77.084147 85.147342 85.147342 0 0 0-84.448532-74.665188zM76.002263 297.037901a86.706227 86.706227 0 0 0 26.877317 0.752565h834.863241a84.448532 84.448532 0 1 0 0-168.897064H296.987568l105.41284-106.004141a88.802657 88.802657 0 0 0 0-124.925772 87.566301 87.566301 0 0 0-124.226962 0L29.827031 147.761279a87.996338 87.996338 0 0 0-18.814122 28.006165 84.287268 84.287268 0 0 0 64.989354 121.270457z"  horiz-adv-x="1026" />

    
    <glyph glyph-name="huanyihuan" unicode="&#58963;" d="M838.695385 521.846154A354.619077 354.619077 0 0 1 512 738.461538a354.461538 354.461538 0 1 1 0-708.923076 354.579692 354.579692 0 0 1 330.161231 225.20123 39.384615 39.384615 0 1 0 73.334154-28.750769A433.309538 433.309538 0 0 0 512-49.230769C272.738462-49.230769 78.769231 144.738462 78.769231 384S272.738462 817.230769 512 817.230769c144.423385 0 275.140923-71.286154 354.461538-183.965538V718.769231a39.384615 39.384615 0 0 0 78.769231 0v-236.307693a39.266462 39.266462 0 0 0-39.384615-39.384615h-196.923077a39.384615 39.384615 0 0 0 0 78.769231h129.772308z"  horiz-adv-x="1024" />

    
    <glyph glyph-name="wodedamaijihuo" unicode="&#58966;" d="M512 337.454545c-141.963636 0-256 125.44-256 279.272728S370.036364 896 512 896s256-125.44 256-279.272727-114.036364-279.272727-256-279.272728zM93.090909 69.818182A197.818182 197.818182 0 0 0 290.909091 267.636364h442.181818a197.818182 197.818182 0 1 0 0-395.636364h-442.181818A198.050909 198.050909 0 0 0 93.090909 69.818182z"  horiz-adv-x="1024" />

    
    <glyph glyph-name="tongxunlu2" unicode="&#58890;" d="M188.007 153.098c0 20.078-16.428 36.506-38.331 36.506H38.332C18.253 189.604 0 173.176 0 153.098s16.428-36.506 38.332-36.506H151.5c20.078 0 36.506 16.428 36.506 36.506zM38.332 580.221H151.5c20.078 0 38.331 16.428 38.331 36.506s-16.427 36.507-38.331 36.507H38.33C18.254 653.234 0 636.806 0 616.727s16.428-36.506 38.332-36.506zM899.879 896H206.26C144.2 896 89.44 855.843 89.44 793.783v-67.537h56.585c49.283 0 93.09-40.157 98.567-87.615 5.476-54.76-38.332-107.693-93.091-107.693H89.44v-268.321h56.584c49.283 0 93.09-40.157 98.567-87.615 5.476-54.76-38.332-107.694-93.091-107.694H89.44v-93.09C89.44-87.844 144.2-128 206.26-128h693.618c62.06 0 122.296 40.157 122.296 102.217V793.783C1022.175 855.843 961.939 896 899.879 896zM856.07 127.544c-20.078-38.332-102.217-56.585-180.706-21.904-78.488 34.68-151.5 93.09-204.435 169.754-51.108 76.663-78.488 166.103-80.313 250.068-3.65 83.964 45.633 151.5 89.44 155.151 10.952 1.826 54.76-1.825 94.916-125.946 10.952-36.507-1.825-31.03-58.41-89.44-25.554-27.38-3.65-74.838-3.65-74.838s14.602-36.507 32.855-65.712c18.253-27.38 47.458-54.759 47.458-54.759s36.507-38.332 71.188-25.554c76.663 27.38 76.663 41.982 105.868 18.253 105.868-83.965 91.265-124.121 85.79-135.073z"  horiz-adv-x="1024" />

    
    <glyph glyph-name="dgdfgfh-" unicode="&#58959;" d="M370.97953943 717.59954044H653.01220459c25.41191836 0 46.01059814 20.97019904 46.01059813 46.82794054v19.52540186c0 25.86599748-20.59867977 46.83619652-46.01059813 46.83619653H370.97953943c-25.42017435 0-46.01059814-20.97019904-46.01059813-46.83619653v-19.52540186c0-25.86599748 20.59042378-46.82794054 46.01059813-46.82794054zM831.03598488 743.87833712h-76.20273116c-3.67391283-47.13341194-43.11274779-84.38441118-91.16257395-84.3844112h-303.32484757c-48.05808213 0-87.49691711 37.25099924-91.16257395 84.3844112h-76.21098714c-101.53208969 0-183.85250491-82.32041522-183.85250492-183.85250492V121.04691358000002c0-101.53208969 82.31215924-183.84424893 183.85250492-183.84424892h638.06371377c101.54034568 0 183.84424893 82.31215924 183.84424893 183.84424892V560.0340881899999c-0.00825598 101.53208969-82.31215924 183.84424893-183.84424893 183.84424893zM710.48210834 300.97782615000006a27.52545024 27.52545024 0 0 0-27.54196221-27.53370622H579.10463693V169.59209876a27.55021819 27.55021819 0 0 0-27.5419622-27.55021819h-79.11709347a27.55021819 27.55021819 0 0 0-27.54196221 27.55021819V273.44411993000006h-103.86027715a27.53370622 27.53370622 0 0 0-27.53370622 27.53370622v79.12534946a27.53370622 27.53370622 0 0 0 27.53370622 27.53370623h103.85202117V511.488903a27.54196221 27.54196221 0 0 0 27.5419622 27.54196221h79.11709347a27.54196221 27.54196221 0 0 0 27.54196221-27.54196221v-103.84376518h103.8355092a27.53370622 27.53370622 0 0 0 27.5419622-27.53370622v-79.13360545z"  horiz-adv-x="1024" />

    
    <glyph glyph-name="travel" unicode="&#58881;" d="M504.003 337.04600000000005c155.467 0 281.542 124.74 281.542 278.631 0 153.817-126.075 278.592-281.542 278.592-155.553 0-281.623-124.777-281.623-278.592 0-153.891 126.071-278.631 281.623-278.631zM511.004 310.69399999999996c-217.675 0-492.737-174.644-492.737-390.061v-47.643h985.478v47.643c0 215.415-275.067 390.061-492.741 390.061z"  horiz-adv-x="1024" />

    
    <glyph glyph-name="faduanxin1" unicode="&#58947;" d="M512-128C229.229714-128 0 101.229714 0 384S229.229714 896 512 896 1024 666.770286 1024 384 794.770286-128 512-128zM526.628571 661.942857C365.070629 661.942857 234.057143 530.929371 234.057143 369.371429a291.108571 291.108571 0 0 1 36.805486-142.072686v-102.8096c0-4.768914 1.755429-9.4208 5.3248-13.048686 3.306057-3.218286 7.606857-4.973714 11.936914-5.178514v-0.117029H399.008914c38.560914-18.724571 81.861486-29.257143 127.619657-29.257143 161.557943 0 292.571429 130.984229 292.571429 292.542172C819.258514 530.929371 688.245029 661.942857 526.628571 661.942857z m-170.920228-299.2128a36.600686 36.600686 0 1 0 73.230628 0 36.600686 36.600686 0 0 0-73.230628 0z m135.402057 0a36.600686 36.600686 0 1 0 73.230629 0 36.600686 36.600686 0 0 0-73.230629 0z m134.231771 0a36.6592 36.6592 0 1 0 73.289143 0 36.6592 36.6592 0 0 0-73.289143 0z"  horiz-adv-x="1024" />

    
    <glyph glyph-name="ceping" unicode="&#59324;" d="M965.12 211.968c-11.264 18.944-25.6 37.888-43.008 54.784-16.896 16.384-35.328 31.232-55.808 43.52l34.304 34.304s49.152 0 73.728-24.576c24.576-24.576 24.576-73.728 24.576-73.728l-33.792-34.304M661.504-95.744H558.592V7.168l12.288 12.288c22.528-10.752 43.008-25.088 60.416-42.496 17.408-17.408 32.256-37.888 42.496-60.416l-12.288-12.288m274.944 279.552l-232.96-237.056a273.817 273.817 0 0 1-45.056 57.344c-17.408 17.408-37.376 32.768-58.368 45.056l237.568 233.472c21.504-10.24 40.96-24.064 57.856-40.448s31.232-37.376 40.96-58.368m-482.304-179.2c-0.512 12.8 76.288 94.208 166.4 185.344h-401.92c-21.504 0-38.912 17.408-38.912 38.912 0 21.504 17.408 38.912 38.912 38.912h454.144c7.168 0 13.824-2.048 19.456-5.12 78.848 78.848 155.648 153.6 190.976 187.904V805.376c0 47.104-38.4 85.504-85.504 85.504H111.104C64 890.88 25.6 852.48 25.6 805.376v-842.24c0-47.104 38.4-85.504 85.504-85.504h343.552c0 47.104 0 109.056-0.512 126.976M178.176 637.952c0 21.504 17.408 38.912 38.912 38.912H673.28c21.504 0 38.912-17.408 38.912-38.912s-17.408-38.912-38.912-38.912H217.088c-21.504 0-38.912 17.408-38.912 38.912m1.536-206.336c0 21.504 17.408 38.912 38.912 38.912h454.144c21.504 0 38.912-17.408 38.912-38.912 0-21.504-17.408-38.912-38.912-38.912H219.136c-21.504 0-39.424 17.92-39.424 38.912"  horiz-adv-x="1024" />

    
    <glyph glyph-name="tongxunlu" unicode="&#58968;" d="M832.89136484 823.97214463H201.13649052C149.74373252 823.97214463 108.37882989 782.60724199 108.37882989 731.21448487v-119.08077979h18.8022287c20.05571075 0 36.35097451-17.54874668 36.35097451-38.85793946 0-20.05571075-16.29526464-38.85793857-36.35097451-38.85793857H108.37882989V420.35097451h18.8022287c20.05571075 0 36.35097451-17.54874668 36.35097451-38.85793857 0-20.05571075-16.29526464-38.85793857-36.35097451-38.85793857H108.37882989v-115.32033458h18.8022287c20.05571075 0 36.35097451-17.54874668 36.35097451-38.85793857 0-20.05571075-16.29526464-38.85793857-36.35097451-38.85793857H108.37882989v-119.08077979c0-51.39275801 41.36490263-92.75765977 92.75766064-92.75765977h631.75487431c51.39275801 0 85.23676846 41.36490263 85.23676846 92.75765977v701.94986104c0 50.13927597-33.84401133 91.50417862-85.23676846 91.50417773z m-124.09470703-733.28690742c-43.8718667-25.06963799-165.45960967 42.61838467-260.72423437 206.8245123-94.0111418 164.20612852-92.75765977 304.5961002-48.88579395 329.66573819C438.04456807 649.73816162 489.43732607 692.35654628 525.78830059 608.37325898c36.35097451-83.9832873 5.01392724-96.51810586-35.09749249-119.08077978-27.57660205-16.29526464 3.76044609-83.9832873 37.60445654-145.4038998 35.09749336-61.4206125 77.71587715-121.58774385 106.54596124-105.29247921 40.1114206 22.56267393 66.43454063 45.12534786 120.33426181-28.8300832 55.15320323-73.95543193-7.52089131-96.51810586-46.37882988-119.08077978z m0 0"  horiz-adv-x="1029" />

    
    <glyph glyph-name="rili" unicode="&#58948;" d="M455.78251953 159.00087890999998h112.51054688v112.5H455.78251953v-112.5zM287.01933594 327.74824219000004h112.50878906V440.25175781H287.02021484v-112.50351562z m0-168.74736328h112.50878906v112.5H287.02021484v-112.5zM849.56767578 834H737.05625001v-56.25087891c0-31.09042969-25.19121094-56.25175781-56.25439454-56.25175782-31.06142578 0-56.25263671 25.16132813-56.25263672 56.25175782V834H399.528125v-56.25087891c0-31.09042969-25.16132813-56.25175781-56.25439453-56.25175782-31.06757813 0-56.25878906 25.16132813-56.25878906 56.25175782V834H174.50878906C112.37890625 834 62.00087891 783.63164062 62.00087891 721.50175781v-675C62.00087891-15.63076172000001 112.37890625-66 174.50878906-66h675.05800781c62.13076172 0 112.50615234 50.36835937 112.50615235 112.50263671V721.50351563C962.07207031 783.63164062 911.6984375 834 849.56767578 834z m0-731.25c0-31.09394531-25.18945313-56.25175781-56.25351562-56.25175781H230.76669922c-31.06669922 0-56.25878906 25.15693359-56.25878905 56.2508789V496.50351562c0 31.08955078 25.19121094 56.24560547 56.25878905 56.24560547h562.54746094c31.06142578 0 56.25351562-25.15429689 56.25351562-56.24560547v-393.75439453zM624.54921875 327.74736328999995h112.50703126V440.25175781h-112.50878907v-112.50351562z m-168.76582031 0h112.51054687V440.25175781H455.78339844v-112.50351562zM624.54921875 159h112.50703126v112.5h-112.50878907v-112.5z m0 0"  horiz-adv-x="1026" />

    
    <glyph glyph-name="faduanxin" unicode="&#59003;" d="M68.288 768h887.424C993.472 768 1024 737.408 1024 699.712v-556.8c0-37.696-30.592-68.224-68.288-68.224h-307.072L512-64l-142.72 138.688H64a64 64 0 0 0-64 64V699.712C0 737.472 30.592 768 68.288 768zM256 384a64 64 0 1 1 0 128 64 64 0 0 1 0-128z m256 0a64 64 0 1 1 0 128 64 64 0 0 1 0-128z m256 0a64 64 0 1 1 0 128 64 64 0 0 1 0-128z"  horiz-adv-x="1024" />

    
    <glyph glyph-name="tianjiashipinhechupintujiahao" unicode="&#58897;" d="M430.592 460.288H129.024c-41.472 0-75.776-33.792-75.776-75.264 0-41.984 33.792-75.264 75.776-75.264h301.568v-301.568c0-41.984 33.792-75.776 75.264-75.776 41.984 0 75.264 33.792 75.264 75.776v301.568h301.568c41.472 0 75.776 33.792 75.776 75.264 0 41.984-33.792 75.264-75.776 75.264h-301.568V761.856c0 41.472-33.792 75.776-75.264 75.776-41.984 0-75.264-33.792-75.264-75.776v-301.568z"  horiz-adv-x="1024" />

    
    <glyph glyph-name="shizhong1" unicode="&#59059;" d="M574.959426 382.414899c0.053212 1.059122 0.081864 2.128477 0.081864 3.199878 0 21.783119-11.144828 40.942481-28.022217 52.132334l-8.769734 198.785416c-0.466628 9.130961-7.92653 25.565259-25.874297 25.565259-17.9887 0-25.333992-16.434298-25.880437-25.565259l-10.233062-200.01236c-15.882736-11.330046-26.252921-29.894867-26.252921-50.90539 0-34.497699 28.010961-62.509682 62.514799-62.509682 2.615571 0 5.186116 0.174985 7.717775 0.488117l120.340809-106.639762c6.879688-6.099928 24.478508-11.650341 39.009456 2.834558 14.531971 14.537088 8.857738 32.095999 2.87549 39.016618L574.959426 382.414899z m0 0M890.488729 401.533328h-19.89205c-8.78713 0-15.910365-7.124258-15.910364-15.911388s7.123234-15.912411 15.910364-15.912411h19.89205c8.78713 0 15.910365 7.125281 15.910364 15.912411s-7.123234 15.911388-15.910364 15.911388z m0 0M154.455279 401.533328h-19.891026c-8.788154 0-15.912411-7.124258-15.912411-15.911388s7.119141-15.912411 15.912411-15.912411h19.891026c8.788154 0 15.912411 7.125281 15.912412 15.912411s-7.124258 15.911388-15.912412 15.911388z m0 0M512.525468 43.46314c-8.786107 0-15.909341-7.128351-15.909342-15.913435v-19.895119c0-8.78406 7.123234-15.913435 15.909342-15.913435 8.783037 0 15.912411 7.129374 15.912411 15.913435v19.895119c-0.001023 8.7902-7.129374 15.913435-15.912411 15.913435z m0 0M512.525468 727.780741c8.783037 0 15.912411 7.117095 15.912411 15.910364v19.891026c0 8.788154-7.129374 15.911388-15.912411 15.911388-8.786107 0-15.909341-7.123234-15.909342-15.911388v-19.891026c-0.001023-8.788154 7.123234-15.910365 15.909342-15.910364z m0 0M512.525468 895.370667c-281.526885 0-509.754866-228.219795-509.754866-509.754867 0-281.529955 228.220818-509.748726 509.754866-509.748726 281.529955 0 509.750773 228.218772 509.750773 509.748726-0.001023 281.535071-228.220818 509.754866-509.750773 509.754867z m0-920.040277c-226.240721 0-410.28848 184.049806-410.288481 410.28541 0 226.242767 184.04776 410.29155 410.288481 410.291551 226.236628 0 410.28541-184.048783 410.28541-410.291551 0-226.235604-184.048783-410.28541-410.28541-410.28541z m0 0"  horiz-adv-x="1024" />

    
    <glyph glyph-name="yidongduan-" unicode="&#58910;" d="M158.56 502.69q-65.41 0-112 45T0 655.44q0 64.4 46.85 109.1t111.71 44.72q65.43 0 112.82-44.72t47.41-109.1q0-63.35-47.13-108t-113.1-44.75zM159.67 747q-38.8 0-66.53-26.61t-27.72-63.88q0-37.27 27.72-63.87T159.67 566q38.81 0 66 26.61t27.16 63.87q0 37.25-27.16 63.87t-66 26.65zM1024 1.32000000000005q-102.57-42.59-238.4-42.58-193.48 0-309.64 113.1t-116.15 294.6q0 199 128.07 320.93T817.2 809.26q112 0 206.8-30.34v-104.86q-89.82 41.53-202.36 41.52-154.68 0-250.87-92.08t-96.19-248q0-150.11 90.64-236.32t238.68-86.23q125.29 0 220.1 47.9z"  horiz-adv-x="1024" />

    
    <glyph glyph-name="wodehaizi" unicode="&#58903;" d="M751.908571 805.790476c-26.331429 25.84381-60.952381 39.984762-96.548571 40.96-16.579048 0.487619-30.232381-12.678095-30.232381-29.257143-0.487619-16.579048 12.678095-30.232381 29.257143-30.232381 20.967619-0.487619 40.472381-8.777143 55.588571-23.405714 13.653333-13.165714 21.455238-30.232381 23.405715-47.786667 19.992381-11.702857 39.497143-24.868571 57.539047-39.984761 9.264762 45.348571-3.413333 94.598095-39.009524 129.706666zM944.518095 369.371429c-4.388571 113.615238-54.125714 213.089524-129.219047 284.769523-7.801905-25.35619-21.942857-48.761905-41.447619-68.754285-32.182857-32.670476-75.093333-50.712381-121.417143-50.712381-45.348571 0-87.771429 17.554286-119.954286 49.249524-11.215238 11.215238-17.554286 25.84381-17.554286 41.935238 0 15.60381 5.851429 30.72 17.066667 41.935238s26.331429 17.554286 41.935238 17.554285c15.60381 0 30.232381-5.851429 41.447619-17.066666 9.752381-9.752381 22.918095-15.11619 36.571429-15.116191 14.140952 0 27.306667 5.36381 37.059047 15.60381 9.752381 9.752381 15.11619 22.918095 15.116191 37.059047 0 10.727619-3.413333 20.967619-9.752381 29.744762-54.613333 24.868571-115.078095 39.009524-177.005714 39.009524-223.329524 0-407.649524-172.129524-425.20381-392.045714C51.2 358.64381 24.380952 313.782857 24.380952 264.045714c0-72.655238 57.051429-132.632381 128.731429-136.533333 76.55619-126.293333 214.064762-206.262857 365.226667-206.262857 150.186667 0 286.232381 78.019048 363.27619 202.849524 66.80381 9.264762 118.00381 66.31619 118.00381 135.558095 0 43.885714-20.967619 84.358095-55.100953 109.714286zM692.419048 423.984762c16.091429 0 31.207619-6.339048 41.935238-17.066667 11.215238-10.727619 18.041905-25.84381 18.041904-42.422857 0-33.158095-26.819048-59.489524-59.489523-59.489524-33.158095 0-59.489524 26.819048-59.489524 59.489524-0.487619 32.670476 25.84381 59.489524 59.001905 59.489524z m-355.961905 0c16.091429 0 31.207619-6.339048 41.935238-17.066667 11.215238-10.727619 18.041905-25.84381 18.041905-42.422857 0-33.158095-26.819048-59.489524-59.489524-59.489524-33.158095 0-59.489524 26.819048-59.489524 59.489524-0.487619 32.670476 26.331429 59.489524 59.001905 59.489524z m433.493333-217.478095c-2.438095-4.87619-4.87619-9.264762-7.801905-14.140953-50.712381-89.234286-145.798095-145.310476-250.148571-145.310476-110.201905 0-209.188571 62.415238-257.950476 159.451429-7.314286 14.628571-1.462857 32.670476 13.165714 39.984762 14.628571 7.314286 32.670476 1.462857 39.984762-13.165715 38.521905-76.55619 117.028571-126.293333 204.312381-126.293333 82.895238 0 157.988571 44.373333 198.460952 115.078095 1.950476 3.900952 3.900952 7.314286 5.851429 11.215238 7.314286 14.628571 25.35619 20.967619 39.984762 13.653334 15.11619-7.801905 21.455238-25.35619 14.140952-40.472381z"  horiz-adv-x="1024" />

    
    <glyph glyph-name="home" unicode="&#58883;" d="M1113.331065 467.536842L601.331065 882.526316c-21.557895 16.168421-53.894737 16.168421-72.757894 0L16.573171 467.536842C-18.458408 437.894737 5.794223 384 54.299486 384h48.505263v-431.157895c0-45.810526 37.726316-80.842105 80.842106-80.842105h245.221052v242.526316c0 45.810526 37.726316 80.842105 80.842106 80.842105h107.789473c45.810526 0 80.842105-35.031579 80.842106-80.842105v-242.526316H943.562644c45.810526 0 80.842105 35.031579 80.842105 80.842105V384h53.894737c48.505263 0 72.757895 53.894737 35.031579 83.536842z"  horiz-adv-x="1132" />

    
    <glyph glyph-name="bian-ji-" unicode="&#59949;" d="M886.93-127.269H137.435A136.338 136.338 0 0 0 1.097 9.143V759.515C1.097 834.853 62.171 895.927 137.51 895.927h493.933a17.013 17.013 0 0 0 17.043-17.042V844.8a17.042 17.042 0 0 0-17.043-17.042H171.447c-56.466 0-102.18-45.86-102.18-102.4V43.3c0-56.54 45.714-102.4 102.18-102.4h681.399c56.466 0 102.18 45.86 102.18 102.4V503.735c0 9.362 7.68 17.042 17.043 17.042h34.084c9.436 0 17.042-7.68 17.042-17.042v-494.592c0-75.337-61-136.412-136.265-136.412z m59.977 811.886L805.376 818.47l43.008 43.154a87.99 87.99 0 0 0 122.149 1.975L988.16 846.92a82.651 82.651 0 0 0 1.755-119.076l-42.934-43.155zM272.384 282.551l141.605-133.852-208.384-71.314 66.779 205.166z m640.293 367.47L448.366 183.369 306.76 317.147 771.072 783.8 912.677 650.02z"  horiz-adv-x="1024" />

    
    <glyph glyph-name="shizhong2" unicode="&#58915;" d="M512 896C229.376 896 0 666.624 0 384s229.376-512 512-512 512 229.376 512 512S794.624 896 512 896z m166.912-691.712l-14.848-14.848c-12.288-12.288-33.28-12.8-46.592-1.024l-171.52 147.456c-13.312 11.776-23.04 35.84-22.016 53.248l17.92 283.136c1.024 17.408 15.872 31.744 33.792 31.744H496.64c17.408 0 32.768-14.336 33.792-31.744l14.848-231.936c1.024-17.408 11.264-42.496 23.04-55.808l112.64-133.632c10.752-13.312 10.24-34.304-2.048-46.592z"  horiz-adv-x="1024" />

    
    <glyph glyph-name="xinzeng1" unicode="&#58983;" d="M509.773913 684.521739c24.486957 0 46.747826 20.034783 46.747826 44.521739v89.043479c0 24.486957-20.034783 44.521739-46.747826 44.521739-24.486957 0-46.747826-20.034783-46.747826-44.521739v-89.043479c0-24.486957 22.26087-44.521739 46.747826-44.521739z m-231.513043 0c24.486957 0 46.747826 20.034783 46.747826 44.521739v89.043479c0 24.486957-20.034783 44.521739-46.747826 44.521739-24.486957 0-46.747826-20.034783-46.747827-44.521739v-89.043479c2.226087-24.486957 22.26087-44.521739 46.747827-44.521739z m463.026087 0c24.486957 0 46.747826 20.034783 46.747826 44.521739v89.043479c0 24.486957-20.034783 44.521739-46.747826 44.521739-24.486957 0-46.747826-20.034783-46.747827-44.521739v-89.043479c0-24.486957 20.034783-44.521739 46.747827-44.521739z m213.704347-601.043478h-46.747826v44.521739c0 24.486957-20.034783 44.521739-46.747826 44.521739-24.486957 0-46.747826-20.034783-46.747826-44.521739v-44.521739h-46.747826c-24.486957 0-46.747826-20.034783-46.747826-44.521739s20.034783-44.521739 46.747826-44.521739h46.747826v-44.52174c0-24.486957 20.034783-44.521739 46.747826-44.521739 24.486957 0 46.747826 20.034783 46.747826 44.521739v44.52174h46.747826c24.486957 0 46.747826 20.034783 46.747826 44.521739s-20.034783 44.521739-46.747826 44.521739z m-276.034782-44.521739c0 48.973913 42.295652 89.043478 91.269565 89.043478 0 48.973913 42.295652 89.043478 91.269565 89.043478 51.2 0 91.269565-40.069565 91.269565-89.043478v601.043478c0 24.486957-20.034783 44.521739-46.747826 44.521739h-77.913043v-44.521739c0-48.973913-42.295652-89.043478-91.269565-89.043478-51.2 0-91.269565 40.069565-91.269566 89.043478v44.521739h-44.521739v-44.521739c0-48.973913-42.295652-89.043478-91.269565-89.043478-51.2 0-91.269565 40.069565-91.269565 89.043478v44.521739h-46.747826v-44.521739c0-48.973913-42.295652-89.043478-91.269565-89.043478-51.2 0-91.269565 40.069565-91.269566 89.043478v44.521739H109.078261c-24.486957 0-46.747826-20.034783-46.747826-44.521739v-779.130435c0-24.486957 20.034783-44.521739 46.747826-44.521739h661.147826v44.521739c-51.2 0-91.269565 40.069565-91.269565 89.043479z m-445.217392 480.834782h554.295653c24.486957 0 46.747826-20.034783 46.747826-44.521739s-20.034783-44.521739-46.747826-44.521739H233.73913c-24.486957 0-46.747826 20.034783-46.747826 44.521739s20.034783 44.521739 46.747826 44.521739z m282.713044-465.252174H224.834783c-22.26087 0-37.843478 17.808696-37.843479 37.843479 0 20.034783 17.808696 37.843478 37.843479 37.843478h291.617391c22.26087 0 37.843478-17.808696 37.843478-37.843478 2.226087-20.034783-15.582609-37.843478-37.843478-37.843479z m115.756522 180.313044h-400.695653c-24.486957 0-46.747826 20.034783-46.747826 44.521739s20.034783 44.521739 46.747826 44.521739h400.695653c24.486957 0 46.747826-20.034783 46.747826-44.521739s-20.034783-44.521739-46.747826-44.521739z m0 0"  horiz-adv-x="1024" />

    
    <glyph glyph-name="tongzhi" unicode="&#59028;" d="M701.50016 533.8c-18.5-17.8-19-47.1-1.3-65.6 60.1-62.6 58.8-161.9-2.9-223-12.2-11.6-17.2-28.8-13-45.1 4.2-16.3 16.8-29 33-33.4 16.2-4.3 33.5 0.5 45.2 12.5 97.7 96.7 99.7 254 4.5 353.2-8.5 8.9-20.2 14-32.5 14.3-12.2 0.3-24.1-4.4-33-12.9zM909.50016 628.8c-11.5 12.1-28.7 17-44.8 12.9-16.2-4.1-28.9-16.5-33.4-32.6s0.1-33.3 11.8-45.1c112.9-115.8 111.5-300.9-3.2-414.9-18.2-18.1-18.3-47.4-0.2-65.6 18.1-18.2 47.4-18.3 65.6-0.2 150.8 149.9 152.7 393.3 4.2 545.5zM451.20016 784.5l-277-178.1v-1.8h-69.9C46.60016 604.6-0.09984 557.8 0.00016 500.1v-278.3c0-57.7 46.8-104.6 104.4-104.6h81.9L446.00016-32.2c99.9-57.5 180.8-10.5 180.8 105.1V688.2c0.1 115.5-78.8 158.5-175.6 96.3zM141.80016 210.1c0-23.1-18.9-41.9-41.9-41.9S58.00016 187 58.00016 210.1V503.5c0 23.1 18.9 41.9 41.9 41.9s41.9-18.9 41.9-41.9v-293.4zM505.30016 626c-30.1 0-54.5 24.4-54.5 54.5s24.4 54.5 54.5 54.5 54.5-24.4 54.5-54.5-24.4-54.5-54.5-54.5z"  horiz-adv-x="1024" />

    
    <glyph glyph-name="lixian1" unicode="&#58885;" d="M744.066403 493.933785l133.080971 64.10297 44.36237-45.328371-133.087111-64.10911L744.066403 493.933785zM655.353942 584.602807l177.443341 181.325765 44.350091-45.328371L699.704033 539.262156 655.353942 584.602807zM566.636365 675.25955l62.727647 136.016837 44.36851-45.347814-62.753229-135.997394L566.636365 675.25955zM633.918747 111.36871599999995l35.18229-42.852994c25.440415-25.926486 66.476017-25.798573 91.711771 0.352017l68.849064 70.826092c25.235754 26.086122 25.037233 68.529793-0.37146 94.328365l-35.260062 42.865273c-18.007119 18.333554-43.933605 27.711132-66.578348 19.887956l-71.433936 73.960479c50.560536 52.185546 132.837424 52.42193 183.596482 0.594541l81.34261-89.8821c50.823526-51.935859 51.072189-136.343271 0.531096-188.593286L807.069319-25.460626000000047C756.585531-77.52542200000005 674.352645-77.82524999999998 623.453395-25.946695999999974l-81.317027 89.889263c-50.759057 52.000328-50.989301 136.343271-0.588401 188.522678l71.65804-72.496128C607.333252 157.66922799999998 616.730273 128.92762700000003 633.918747 111.36871599999995zM411.68427 591.6011980000001c7.228635 22.785959-1.63729 48.885384-19.280112 66.910922l-26.444279 43.358507c-25.113981 25.497721-65.420989 25.37697-90.182952-0.306992l-67.449181-69.668733c-24.794709-25.670659-24.685215-66.969251 0.261966-92.524277l26.444279-43.428092 52.863998-37.485753c16.765849-17.086144-8.546653 11.034311 12.800537 17.047258l69.75162-71.606875c-49.621141-51.284013-130.297578-51.514257-180.231851-0.537236l-71.606875 89.479941c-50.01716 50.977022-50.215682 133.822868-0.556679 185.036273L230.358505 794.101215c49.710169 51.16224 130.451074 51.520397 180.264597 0.601704l71.792093-89.651856c49.863664-50.861388 50.036603-133.829008 0.460488-184.997388L411.68427 591.6011980000001zM242.205321 275.045519l-133.080971-64.10911-44.36237 45.334511 133.087111 64.10911L242.205321 275.045519zM330.917782 196.056514L153.48058 14.711306000000036l-44.35623 45.328371 177.443341 181.345208L330.917782 196.056514zM419.635359 105.381351l-59.58098-136.003534-44.342927 45.334511 59.548234 136.010697L419.635359 105.381351z"  horiz-adv-x="1024" />

    
    <glyph glyph-name="bumen" unicode="&#59034;" d="M1407.378087 767.9660690000001L639.536433 0.12441499999999905l0.090483-0.090484-127.943448-128.033931L-0.180807 383.864275l128.033932 128.033931L511.592985 128.067863 1279.434639 895.909517l127.943448-127.943448z"  horiz-adv-x="1408" />

    


  </font>
</defs>
</svg>
